<svg id="Camada_1" data-name="Camada 1" xmlns="http://www.w3.org/2000/svg" viewBox="0 0 200 200"><defs><style>.cls-1{fill:#0b1922;}.cls-2{fill:#eeae24;}</style></defs><rect class="cls-1" x="-0.5" y="-0.5" width="201" height="201"/><path class="cls-2" d="M122.55,135.17a49.48,49.48,0,0,0,1.63,14.7c2.16,7.37,7.35,10.92,14.54,10.09a10.55,10.55,0,0,0,8.27-5.21c.7-1.19,1.24-1.49,2.56-.91,3.48,1.53,3.5,1.55,1.52,4.88-3.12,5.23-7.86,7.33-13.73,7.37-10.46.07-16.34-4-19.28-12.82a32.08,32.08,0,0,1-1.66-6.6c-1-9-1.1-17.95,1.46-26.7,3.83-13.08,20.39-18.33,30.54-9.79a13.08,13.08,0,0,1,3.9,6c.26.74.24,1.26-.61,1.51a5.05,5.05,0,0,0-.53.24c-1,.44-2,1.26-3,1.22-1.18,0-1.23-1.63-1.86-2.48-3.59-4.82-11.47-5.85-16.47-2a14.8,14.8,0,0,0-5.86,8.94c-.32,1.53-.63,3.07-.8,4.62C122.87,130.5,122.74,132.84,122.55,135.17Z"/><path class="cls-2" d="M46.3,62.54c0-9.3,0-18.6,0-27.9,0-1.49.43-1.84,1.87-1.82,4.85,0,4.85,0,4.85,4.86,0,15.41,0,30.82,0,46.24,0,1.84.56,2.25,2.3,2.23,9-.08,17.94,0,26.92-.08,1.77,0,2.15.51,2.11,2.18-.11,4.3,0,4.3-4.25,4.3-10.6,0-21.2,0-31.79,0-1.55,0-2-.42-2-2C46.33,81.27,46.3,71.9,46.3,62.54Z"/><path class="cls-2" d="M154.14,62.82a2.55,2.55,0,0,1-1.36,2.5q-15.51,10.64-31,21.25c-1.83,1.24-3.31,1-4.27-.43s-.65-3,1.26-4.3q12.68-8.75,25.42-17.4c2.41-1.64,2.41-1.63,0-3.28L119.51,44.31a12.34,12.34,0,0,1-1.1-.8c-1.54-1.24-1.88-2.88-.89-4.25s2.3-1.56,4.09-.34q15.54,10.59,31.05,21.25A2.67,2.67,0,0,1,154.14,62.82Z"/><path class="cls-2" d="M80.87,114.67a2.36,2.36,0,0,1,2.32,1.47,2.49,2.49,0,0,1-.34,3.07,17.85,17.85,0,0,1-2.6,2Q68,129.64,55.77,138c-1.78,1.22-1.78,1.23,0,2.44L81,157.73a11.88,11.88,0,0,1,1.55,1.17,2.78,2.78,0,0,1,.36,3.88,2.38,2.38,0,0,1-3.6.57c-3.3-2.2-6.57-4.46-9.84-6.69L48.57,142.33c-3.2-2.18-3.2-4.05,0-6.26Q63.32,126,78.05,115.9A5.19,5.19,0,0,1,80.87,114.67Z"/></svg>